<svg width="21" height="20" viewBox="0 0 21 20" fill="none" xmlns="http://www.w3.org/2000/svg">
<g id="ph:globe-light">
<path id="Vector" d="M10.9141 2.03125C9.338 2.03125 7.79732 2.49861 6.48687 3.37423C5.17641 4.24984 4.15504 5.49439 3.5519 6.95049C2.94877 8.40659 2.79096 10.0088 3.09843 11.5546C3.40591 13.1004 4.16486 14.5203 5.27931 15.6348C6.39376 16.7492 7.81365 17.5082 9.35944 17.8156C10.9052 18.1231 12.5075 17.9653 13.9636 17.3622C15.4197 16.759 16.6642 15.7377 17.5398 14.4272C18.4155 13.1167 18.8828 11.5761 18.8828 10C18.8803 7.88732 18.04 5.86188 16.5461 4.36798C15.0522 2.87409 13.0267 2.03373 10.9141 2.03125ZM17.2867 7.03125H14.132C13.7559 5.58195 13.0701 4.23141 12.1219 3.07266C13.2374 3.26934 14.2891 3.73175 15.1881 4.42079C16.0871 5.10983 16.8069 6.00522 17.2867 7.03125ZM17.9453 10C17.9458 10.6881 17.845 11.3725 17.6461 12.0312H14.3367C14.5649 10.6867 14.5649 9.3133 14.3367 7.96875H17.6461C17.845 8.62747 17.9458 9.3119 17.9453 10ZM10.9141 16.8617C10.4627 16.4013 10.0647 15.8916 9.72735 15.3422C9.2721 14.6017 8.91841 13.8034 8.67578 12.9688H13.1523C12.9097 13.8034 12.556 14.6017 12.1008 15.3422C11.7635 15.8916 11.3654 16.4013 10.9141 16.8617ZM8.44922 12.0312C8.19404 10.6891 8.19404 9.31089 8.44922 7.96875H13.3789C13.6341 9.31089 13.6341 10.6891 13.3789 12.0312H8.44922ZM3.88282 10C3.88229 9.3119 3.98311 8.62747 4.18203 7.96875H7.49141C7.26324 9.3133 7.26324 10.6867 7.49141 12.0312H4.18203C3.98311 11.3725 3.88229 10.6881 3.88282 10ZM10.9141 3.13828C11.3654 3.59867 11.7635 4.10839 12.1008 4.65781C12.556 5.39829 12.9097 6.19658 13.1523 7.03125H8.67578C8.91841 6.19658 9.2721 5.39829 9.72735 4.65781C10.0647 4.10839 10.4627 3.59867 10.9141 3.13828ZM9.70625 3.07266C8.758 4.23141 8.0722 5.58195 7.6961 7.03125H4.54141C5.02123 6.00522 5.74108 5.10983 6.64008 4.42079C7.53907 3.73175 8.59078 3.26934 9.70625 3.07266ZM4.54141 12.9688H7.6961C8.0722 14.418 8.758 15.7686 9.70625 16.9273C8.59078 16.7307 7.53907 16.2682 6.64008 15.5792C5.74108 14.8902 5.02123 13.9948 4.54141 12.9688ZM12.1195 16.9273C13.0686 15.7688 13.7552 14.4182 14.132 12.9688H17.2867C16.8069 13.9948 16.0871 14.8902 15.1881 15.5792C14.2891 16.2682 13.2374 16.7307 12.1219 16.9273H12.1195Z" fill="black"/>
</g>
</svg>
