<svg width="21" height="20" viewBox="0 0 21 20" fill="none" xmlns="http://www.w3.org/2000/svg">
<g id="Google" clip-path="url(#clip0_44_787)">
<path id="Vector" d="M20.4895 10.1873C20.4895 9.36792 20.4214 8.76998 20.2742 8.1499H10.6992V11.8482H16.3195C16.2062 12.7673 15.5943 14.1514 14.2346 15.0815L14.2155 15.2053L17.2429 17.4972L17.4527 17.5176C19.3789 15.7791 20.4895 13.2213 20.4895 10.1873Z" fill="#002884"/>
<path id="Vector_2" d="M10.6993 19.9312C13.4527 19.9312 15.7643 19.0453 17.4527 17.5173L14.2346 15.0812C13.3734 15.6681 12.2176 16.0777 10.6993 16.0777C8.00242 16.0777 5.71352 14.3393 4.89759 11.9365L4.77799 11.9464L1.63003 14.3271L1.58887 14.439C3.26588 17.6944 6.7106 19.9312 10.6993 19.9312Z" fill="#34A853"/>
<path id="Vector_3" d="M4.89748 11.9368C4.68219 11.3167 4.55759 10.6523 4.55759 9.96583C4.55759 9.27927 4.68219 8.61492 4.88615 7.99484L4.88045 7.86278L1.69304 5.44385L1.58876 5.49232C0.897576 6.84324 0.500977 8.36026 0.500977 9.96583C0.500977 11.5714 0.897576 13.0884 1.58876 14.4393L4.89748 11.9368Z" fill="#FBBC05"/>
<path id="Vector_4" d="M10.6993 3.85336C12.6142 3.85336 13.906 4.66168 14.6425 5.33718L17.5207 2.59107C15.753 0.985496 13.4527 0 10.6993 0C6.7106 0 3.26588 2.23672 1.58887 5.49214L4.88626 7.99466C5.71352 5.59183 8.00242 3.85336 10.6993 3.85336Z" fill="#EB4335"/>
</g>
<defs>
<clipPath id="clip0_44_787">
<rect width="20" height="20" fill="white" transform="translate(0.5)"/>
</clipPath>
</defs>
</svg>
