<svg width="100" height="100" viewBox="0 0 100 100" fill="none" xmlns="http://www.w3.org/2000/svg">
<g id="gridicons:quote">
<path id="Vector" d="M46.6334 65.6543C46.6334 61.9877 45.6751 58.9127 43.7584 56.4168C42.4001 54.7002 40.5584 53.571 38.2292 53.0335C35.9376 52.5002 33.7709 52.4627 31.8126 52.9168C31.1459 48.9585 32.2292 44.7668 34.9792 40.3252C37.7292 35.8877 41.2917 32.546 45.6376 30.3127L39.0501 20.8335C35.7167 22.4835 32.5501 24.5752 29.6334 27.1043C26.6751 29.6335 24.0501 32.5418 21.7167 35.8293C19.3834 39.1168 17.6334 42.8293 16.5084 47.0377C15.3834 51.246 15.0709 55.5377 15.6084 59.9543C16.3084 65.7877 18.1917 70.4543 21.2584 73.9127C24.3209 77.4168 28.1417 79.1668 32.7084 79.1668C36.7292 79.1668 40.0667 77.9585 42.7084 75.5085C45.3251 73.1085 46.6251 69.821 46.6251 65.6418L46.6334 65.6543ZM84.6501 65.6543C84.6501 61.9877 83.6917 58.9127 81.7751 56.4168C80.4167 54.6668 78.5667 53.5335 76.2459 53.0127C73.9126 52.496 71.7751 52.471 69.8292 52.921C69.1626 49.0043 70.2042 44.796 72.9626 40.3377C75.7126 35.921 79.2667 32.5877 83.6126 30.3377L77.0417 20.8335C73.7084 22.4835 70.5626 24.5752 67.6251 27.1043C64.6398 29.671 61.9885 32.6022 59.7334 35.8293C57.4167 39.121 55.6917 42.8293 54.5667 47.0377C53.4284 51.2435 53.1213 55.6309 53.6626 59.9543C54.3542 65.7877 56.2292 70.4543 59.2876 73.9127C62.3417 77.3877 66.1501 79.1293 70.7167 79.1293C74.7459 79.1293 78.0834 77.921 80.7251 75.4752C83.3376 73.0752 84.6501 69.7877 84.6501 65.6085V65.6543Z" fill="#3E5EA7"/>
</g>
</svg>
