<svg width="327" height="249" viewBox="0 0 327 249" fill="none" xmlns="http://www.w3.org/2000/svg">
<path d="M119.967 166.009C162.044 145.314 194.547 121.349 217.476 94.1108C240.425 66.8795 247.39 44.0965 238.372 25.7617C229.355 7.42694 207.058 -0.964139 171.48 0.588468C135.903 2.14107 97.0853 13.2677 55.0272 33.9683C12.9691 54.6689 -19.6093 78.6564 -42.7081 105.931C-65.8068 133.205 -72.8319 156.025 -63.7834 174.391C-54.7348 192.758 -32.3777 201.111 3.28808 199.453C38.9538 197.794 77.8375 186.643 119.939 165.999M133.858 195.205C149.162 187.679 164.131 178.802 178.763 168.576C193.402 158.362 206.509 147.449 218.086 135.836C229.663 124.224 239.02 112.29 246.158 100.034C253.295 87.7778 257.005 75.841 257.289 64.2232L284.758 120.076C284.475 131.694 280.765 143.631 273.627 155.887C266.509 168.149 257.155 180.09 245.565 191.708C233.988 203.321 220.881 214.234 206.242 224.448C191.603 234.661 176.632 243.532 161.328 251.059C146.024 258.585 129.859 265.029 112.833 270.388C95.807 275.748 79.2181 279.44 63.0664 281.465C46.9148 283.49 31.8099 283.579 17.7519 281.731C3.69384 279.884 -8.02264 275.542 -17.3976 268.706L-44.8765 212.834C-35.508 219.689 -23.7884 224.037 -9.71779 225.878C4.33406 227.713 19.4389 227.624 35.5968 225.612C51.7423 223.574 68.3311 219.882 85.3632 214.535C102.395 209.188 118.56 202.745 133.858 195.205ZM175.606 280.089C190.91 272.562 205.881 263.691 220.52 253.478C235.139 243.258 248.244 232.338 259.833 220.72C271.423 209.101 280.78 197.167 287.905 184.917C295.03 172.667 298.74 160.73 299.036 149.106L326.329 204.601C326.046 216.219 322.336 228.156 315.198 240.412C308.073 252.661 298.719 264.602 287.136 276.233C275.559 287.846 262.452 298.759 247.813 308.972C233.174 319.186 218.203 328.056 202.899 335.583C187.595 343.11 171.43 349.553 154.404 354.913C137.378 360.273 120.789 363.965 104.637 365.99C88.4857 368.015 73.3809 368.103 59.3228 366.256C45.2648 364.409 33.5452 360.061 24.1641 353.212L-3.12931 297.717C6.2518 304.566 17.9714 308.914 32.0294 310.761C46.0875 312.609 61.1923 312.52 77.344 310.495C93.4957 308.47 110.084 304.778 127.11 299.418C144.136 294.059 160.301 287.615 175.606 280.089Z" fill="#3E5EA7" fill-opacity="0.3"/>
</svg>
